<svg id="Layer_1" data-name="Layer 1" xmlns="http://www.w3.org/2000/svg" viewBox="0 0 2000 2000"><defs><style>.cls-1{fill:#004d77;}.cls-2{fill:#fbb03b;}.cls-3{fill:#8cc63f;}.cls-4{fill:#ff457a;}.cls-5{fill:#29abe2;}.cls-6{fill:#e57e17;}.cls-7{fill:#0071bc;}.cls-8{fill:#6a9626;}.cls-9{fill:#d8315b;}</style></defs><path class="cls-1" d="M961.27,911.4H917.89a13,13,0,0,0-13,13v207.87a3.07,3.07,0,0,1-5.64,1.66L774.74,941.55a93.72,93.72,0,0,1-86.64,89.54v229.32a13,13,0,0,0,13,13h43.62a13,13,0,0,0,13-13V1045.78a3.05,3.05,0,0,1,5.64-1.63l141.44,223.22a13,13,0,0,0,11,6h45.48a13,13,0,0,0,13-13v-336A13,13,0,0,0,961.27,911.4Z"/><path class="cls-1" d="M1148.27,1273.4H1038.19a13,13,0,0,1-13-13v-336a13,13,0,0,1,13-13h108.09q49.23,0,78.82,9.94t53.7,33.32q25.6,24.87,38.79,60.17t13.18,79.31q0,49.23-18.4,88.14a163.46,163.46,0,0,1-53.46,64,126,126,0,0,1-44.5,20.89Q1189.8,1273.4,1148.27,1273.4Zm-4.47-62.15q58.92,0,86.77-28.84t27.85-90.26q0-56.43-30.46-87.76t-85.16-31.33h-33.25a13,13,0,0,0-13,13v212.2a13,13,0,0,0,13,13Z"/><path class="cls-1" d="M1484.85,1273.4H1374.77a13,13,0,0,1-13-13v-336a13,13,0,0,1,13-13h108.09q49.23,0,78.82,9.94t53.7,33.32q25.61,24.87,38.79,60.17t13.18,79.31q0,49.23-18.4,88.14a163.46,163.46,0,0,1-53.46,64,126,126,0,0,1-44.5,20.89Q1526.38,1273.4,1484.85,1273.4Zm-4.47-62.15q58.92,0,86.77-28.84t27.85-90.26q0-56.43-30.46-87.76t-85.16-31.33h-33.25a13,13,0,0,0-13,13v212.2a13,13,0,0,0,13,13Z"/><circle class="cls-2" cx="533.63" cy="688.8" r="50.38"/><circle class="cls-3" cx="383.03" cy="932.16" r="50.38"/><circle class="cls-4" cx="533.22" cy="1179.31" r="50.38"/><circle class="cls-5" cx="817.02" cy="688.37" r="50.38"/><path class="cls-2" d="M660.57,637.3V840.53a34.46,34.46,0,0,1-.42,5.61,93,93,0,0,0-25,9.65l-54.17-84a8.5,8.5,0,0,0,4-4.23l59-133.75C647.78,625.27,660.57,628,660.57,637.3Z"/><path class="cls-6" d="M635.16,855.79a94.17,94.17,0,0,0-26.44,22.11,39.48,39.48,0,0,1-7.18-3.24L424.83,772.89c-8.11-4.67-4.06-17.12,5.24-16.09l146.11,15.89a8.77,8.77,0,0,0,4.81-.9Z"/><path class="cls-5" d="M925.53,772.86,749.94,873.93a94.33,94.33,0,0,0-30.22-21.83l49.65-80.22a8.75,8.75,0,0,0,4.61.81l146.3-15.92C929.58,755.77,933.64,768.2,925.53,772.86Z"/><path class="cls-7" d="M769.37,771.88,719.72,852.1a92.62,92.62,0,0,0-29.93-7.88c-.12-1.2-.17-2.42-.17-3.67V637.3c0-9.35,12.76-12,16.55-3.49l59,133.75A8.58,8.58,0,0,0,769.37,771.88Z"/><path class="cls-3" d="M593.34,904.39a92.78,92.78,0,0,0-6,29.32H487.78a8.59,8.59,0,0,0-1.66-5L400.24,811.36c-5.54-7.55,3.18-17.29,11.28-12.62l175.2,100.91A39.52,39.52,0,0,1,593.34,904.39Z"/><path class="cls-8" d="M591.31,964.79a40.3,40.3,0,0,1-4.61,3.1L411.64,1068.66c-8.1,4.66-16.82-5.06-11.3-12.6l85.78-117.18a8.48,8.48,0,0,0,1.66-5.17h99.58c-.05,1.29-.08,2.59-.08,3.88A93,93,0,0,0,591.31,964.79Z"/><path class="cls-4" d="M633.28,1018.3l-50.63,78.55a8.56,8.56,0,0,0-6.47-2l-146.3,15.92c-9.3,1-13.35-11.42-5.25-16.09L601.54,992.86c.9-.51,1.83-1,2.76-1.44A93.9,93.9,0,0,0,633.28,1018.3Z"/><path class="cls-9" d="M660.57,1029.11V1271.3L585,1100a8.27,8.27,0,0,0-2.36-3.13l50.63-78.55A92.89,92.89,0,0,0,660.57,1029.11Z"/><path class="cls-1" d="M681.07,881.78a55.8,55.8,0,1,0,28.06,104l27.73,11.35V937.58A55.8,55.8,0,0,0,681.07,881.78Zm-29.46,64.75a8.95,8.95,0,1,1,8.95-8.95A8.95,8.95,0,0,1,651.61,946.53Zm29.46,0a8.95,8.95,0,1,1,8.94-8.95A9,9,0,0,1,681.07,946.53Zm29.45,0a8.95,8.95,0,1,1,9-8.95A9,9,0,0,1,710.52,946.53Z"/><path class="cls-5" d="M697.28,1362.53v-47.62a8.2,8.2,0,0,1,2-5.91,7.27,7.27,0,0,1,5.51-2.1h18.77q12.36,0,18.68,5t6.32,14.72q0,7.68-4.24,12.62t-12.15,6.24l16.39,19.72a.45.45,0,0,1,.14.33,2.5,2.5,0,0,1-.57,1.28,7.83,7.83,0,0,1-2.93,2.43,10,10,0,0,1-4.93,1.16,9.32,9.32,0,0,1-5.07-1.3,17,17,0,0,1-4.4-4.51l-13.43-16.83h-5.47V1364q0,6.46-6.36,6.47h-2.1Q697.29,1370.44,697.28,1362.53Zm14.44-25.45h11c3.78,0,6.62-.84,8.54-2.5a8.73,8.73,0,0,0,2.88-7q0-9.45-11.7-9.46H711.72Z"/><path class="cls-5" d="M765.29,1362.15v-47.24a8.2,8.2,0,0,1,2-5.91,7.2,7.2,0,0,1,5.48-2.1h35.27q6.63,0,6.63,6.06v.47q0,6.06-6.63,6.06H779.74v12.2h20.69q6.62,0,6.62,5.71v.39q0,6-6.62,6H779.74v13.68h28.79q6.62,0,6.62,5.71v.58q0,6.29-6.62,6.29H772.78a7.29,7.29,0,0,1-5.51-2A8.09,8.09,0,0,1,765.29,1362.15Z"/><path class="cls-5" d="M828.47,1358.62a6.46,6.46,0,0,1,1.26-3.69,10.62,10.62,0,0,1,2.6-2.77c.89-.62,1.43-.86,1.62-.74a23.07,23.07,0,0,0,8.09,6.2,24.18,24.18,0,0,0,10.69,2.48c3.73,0,6.58-.67,8.58-2a6.5,6.5,0,0,0,3-5.73,5.46,5.46,0,0,0-.68-2.69,6.46,6.46,0,0,0-1.52-1.88,9.67,9.67,0,0,0-2.77-1.36,32,32,0,0,0-3.12-1l-3.83-.88c-.81-.2-1.42-.34-1.81-.41a57.72,57.72,0,0,1-7.55-2.12,30.77,30.77,0,0,1-6.39-3.32,14,14,0,0,1-4.89-5.57,18.16,18.16,0,0,1-1.66-8,17.28,17.28,0,0,1,6.67-14.21q6.69-5.33,18-5.34,10.63,0,16.65,3.53t6,8a6.62,6.62,0,0,1-1.4,4,12,12,0,0,1-2.77,2.83c-.9.62-1.44.87-1.6.74a22.29,22.29,0,0,0-7.39-5.62,21.2,21.2,0,0,0-9.41-2.2q-5.21,0-8.07,2a6.38,6.38,0,0,0-2.87,5.53,6.32,6.32,0,0,0,.2,1.6,4.17,4.17,0,0,0,.63,1.35,8.4,8.4,0,0,0,.89,1.08,4.33,4.33,0,0,0,1.41.83c.63.26,1.16.48,1.58.67a11,11,0,0,0,1.93.58l2.06.46,2.36.53,2.48.55q9.86,2.15,15.6,6.61t5.75,12.67q0,9.48-6.75,14.75t-19.16,5.27q-11.69,0-18-3.93T828.47,1358.62Z"/><path class="cls-5" d="M901.87,1362.27q-9.14-9.09-9.13-23.69t9.2-23.78q9.19-9.18,23.48-9.19t23.55,9.14q9.12,9.12,9.12,23.73t-9.22,23.74q-9.23,9.13-23.55,9.13T901.87,1362.27Zm5.32-23.81q0,9,5.07,14.67a18.23,18.23,0,0,0,26.32,0q5.07-5.61,5.07-14.61t-5.12-14.7a18.25,18.25,0,0,0-26.32-.09Q907.19,1329.31,907.19,1338.46Z"/><path class="cls-5" d="M974.24,1343.51v-30.46q0-6.52,6.29-6.53h1.87q6.29,0,6.29,6.53v30.24q0,15.33,12.84,15.28t12.76-15.38v-30.14q0-6.52,6.28-6.53h2q6.18,0,6.19,6.53v30.27q0,13.68-7,20.76t-20.34,7.08q-13.35,0-20.26-7T974.24,1343.51Z"/><path class="cls-5" d="M1047.22,1362.53v-47.62a8.2,8.2,0,0,1,2-5.91,7.25,7.25,0,0,1,5.5-2.1h18.78q12.35,0,18.67,5t6.33,14.72q0,7.68-4.25,12.62t-12.15,6.24l16.4,19.72a.49.49,0,0,1,.14.33,2.5,2.5,0,0,1-.57,1.28,7.83,7.83,0,0,1-2.93,2.43,10.08,10.08,0,0,1-4.94,1.16,9.32,9.32,0,0,1-5.07-1.3,17.18,17.18,0,0,1-4.4-4.51l-13.42-16.83h-5.47V1364q0,6.46-6.37,6.47h-2.09Q1047.21,1370.44,1047.22,1362.53Zm14.44-25.45h11c3.77,0,6.62-.84,8.53-2.5a8.73,8.73,0,0,0,2.88-7q0-9.45-11.7-9.46h-10.7Z"/><path class="cls-5" d="M1113,1338.51q0-14.44,9.08-23.67t23.52-9.23q11.36,0,17.83,4.66t6.48,9.2a6.31,6.31,0,0,1-2,4.79,10.21,10.21,0,0,1-4.06,2.51c-1.33.39-2.06.45-2.19.2a16.83,16.83,0,0,0-6.51-6.43,18,18,0,0,0-8.93-2.34,17.13,17.13,0,0,0-13.18,5.62q-5.17,5.63-5.18,14.61t5.22,14.66a17.2,17.2,0,0,0,13.23,5.67,18.1,18.1,0,0,0,9.68-2.58,14.68,14.68,0,0,0,6-7.16c.13-.25.89-.19,2.29.2a10.58,10.58,0,0,1,4.19,2.48,6.18,6.18,0,0,1,2.1,4.78q0,4.83-6.74,9.85t-18.43,5q-14.34,0-23.38-9.15T1113,1338.51Z"/><path class="cls-5" d="M1186.68,1362.15v-47.24a8.2,8.2,0,0,1,2-5.91,7.2,7.2,0,0,1,5.48-2.1h35.27q6.63,0,6.63,6.06v.47q0,6.06-6.63,6.06h-28.31v12.2h20.69q6.62,0,6.62,5.71v.39q0,6-6.62,6h-20.69v13.68h28.79q6.63,0,6.63,5.71v.58q0,6.29-6.63,6.29h-35.75a7.29,7.29,0,0,1-5.51-2A8.13,8.13,0,0,1,1186.68,1362.15Z"/><path class="cls-5" d="M1277.42,1363.91v-49a8.24,8.24,0,0,1,2-5.91,7.21,7.21,0,0,1,5.47-2.1h16.49q12.56,0,19.21,5.47t6.65,15.91q0,21.13-25.69,21.19h-9.49v14.41q0,6.57-6.32,6.56h-2.18Q1277.42,1370.44,1277.42,1363.91Zm14.44-25.17h9.51c3.91,0,6.89-.89,9-2.68a9.54,9.54,0,0,0,3.12-7.64q0-10.22-12.18-10.27h-9.42Z"/><path class="cls-5" d="M1349.6,1362.27q-9.12-9.09-9.13-23.69t9.2-23.78q9.19-9.18,23.48-9.19t23.55,9.14q9.12,9.12,9.13,23.73t-9.22,23.74q-9.22,9.13-23.55,9.13T1349.6,1362.27Zm5.32-23.81q0,9,5.07,14.67a18.23,18.23,0,0,0,26.32,0q5.07-5.61,5.07-14.61t-5.11-14.7a17,17,0,0,0-13.21-5.65,16.84,16.84,0,0,0-13.12,5.56Q1354.92,1329.31,1354.92,1338.46Z"/><path class="cls-5" d="M1422.46,1362.53v-47.62a8.2,8.2,0,0,1,2-5.91,7.25,7.25,0,0,1,5.5-2.1h18.78q12.35,0,18.67,5t6.33,14.72q0,7.68-4.25,12.62t-12.15,6.24l16.4,19.72a.49.49,0,0,1,.14.33,2.5,2.5,0,0,1-.57,1.28,7.83,7.83,0,0,1-2.93,2.43,10.08,10.08,0,0,1-4.94,1.16,9.32,9.32,0,0,1-5.07-1.3,17,17,0,0,1-4.4-4.51l-13.42-16.83h-5.47V1364q0,6.46-6.37,6.47h-2.09Q1422.45,1370.44,1422.46,1362.53Zm14.44-25.45h11c3.77,0,6.62-.84,8.53-2.5a8.73,8.73,0,0,0,2.88-7q0-9.45-11.7-9.46h-10.7Z"/><path class="cls-5" d="M1485.8,1313.24v-.38q0-6,6.61-6h42.78q6.61,0,6.62,6v.38q0,6.26-6.6,6.25h-14.09v44.42q0,6.54-6.38,6.53h-2.07q-6,0-6-6.53v-44.42h-14.29Q1485.8,1319.49,1485.8,1313.24Z"/><path class="cls-5" d="M1546.09,1366.34l21.59-55.72a5.32,5.32,0,0,1,2.72-3.22q2.05-1.07,6.67-1.07t6.63,1.07a5.36,5.36,0,0,1,2.62,3.22l22.07,55.63a.92.92,0,0,1,0,.28,2.41,2.41,0,0,1-.81,1.39,9.84,9.84,0,0,1-3.1,1.95,10,10,0,0,1-4,.86q-5.76,0-8.29-6.82l-3.81-10h-23.12l-3.82,10.15q-2.33,6.63-7.91,6.63a9.55,9.55,0,0,1-3.76-.81,9.19,9.19,0,0,1-3-1.86,2.2,2.2,0,0,1-.86-1.38A1.16,1.16,0,0,1,1546.09,1366.34Zm22.07-23.12h17.4l-8.68-22.92Z"/><path class="cls-5" d="M1622.64,1362.15v-49.1q0-6.52,6-6.53h2q6.33,0,6.34,6.54v44.42h23.64q6.63,0,6.63,6v.37q0,6.21-6.63,6.2h-30.6a7.29,7.29,0,0,1-5.51-2A8.08,8.08,0,0,1,1622.64,1362.15Z"/></svg>